<?xml version="1.0" encoding="utf-8"?>
<!DOCTYPE svg PUBLIC "-//W3C//DTD SVG 1.1//EN" "http://www.w3.org/Graphics/SVG/1.1/DTD/svg11.dtd">
<svg version="1.1" xmlns="http://www.w3.org/2000/svg" xmlns:xlink="http://www.w3.org/1999/xlink" x="0px" y="0px" viewBox="0 0 1000 1000" enable-background="new 0 0 1000 1000" xml:space="preserve">
<g><path d="M865.1,234.4H702.8v-0.8C702.8,110.1,612,10,500,10c-112,0-202.8,100.1-202.8,223.6v0.8H134.9L53.8,990h892.4L865.1,234.4L865.1,234.4z M501.7,45c95.2,0.2,166.5,74.7,167.3,189.4H332.1C332.9,119.8,399.2,45,501.7,45L501.7,45z M633.6,827.2l-128.6-64.8l-128.6,64.8l27.6-131.9l-107-91.9l145.6-16.7l62.4-121.6l62.4,121.6L713,603.4l-107,91.9L633.6,827.2L633.6,827.2z"/></g>
</svg>