<?xml version="1.0" encoding="utf-8"?>
<!DOCTYPE svg PUBLIC "-//W3C//DTD SVG 1.1//EN" "http://www.w3.org/Graphics/SVG/1.1/DTD/svg11.dtd">
<svg version="1.1" xmlns="http://www.w3.org/2000/svg" xmlns:xlink="http://www.w3.org/1999/xlink" x="0px" y="0px" viewBox="0 0 1000 1000" enable-background="new 0 0 1000 1000" xml:space="preserve">
<g><path d="M882.6,575.2c-10.2-24.7-22.5-47.1-35.9-67.1c0.7-0.4,1.4-0.8,2-1.1c7.9-6.2-0.7-33-9-57.8c-7.9-22.8-25.4-45.5-26-44.8c-1.6,1.4-3.5,2.8-5.3,4.5c8.3-28,12.9-57.2,12.9-87.8C821.4,149.5,681,10,508.1,10C335,10,194.9,149.5,194.9,321c0,21.2,2.1,41.9,6.2,62c-1.6-1.6-3.4-3.3-5-4.6c-5.3,0-15.1,29.7-19.4,53.8c-6.1,34.6-10,49.1-10,49.1s-0.7,6.6,1.7,8.5c0.2,0.2,0.5,0.4,0.8,0.7c-15.4,18.9-30.2,40.9-42.6,65.7C82.2,644.9,88.9,734.4,116.1,749c14,7.5,50.7-16.6,86.7-60.3c5.6,49.9,28.6,95.7,64,132.8c-59.7,18.5-99,53.4-93.8,89.4c0.3,2.7,1.9,5.3,2.8,7.9c0.2,0.4-0.1,0.8-0.1,1.3c6.9,45.6,84.7,75.4,173.9,65.7c68.4-7.5,123.4-35.7,142.4-69.1c3.9,0.2,7.7,0.5,11.5,0.5c6.5,0,12.9-0.5,19.4-0.9c19.1,33.8,72.6,62.8,138.8,71.2c86.6,11.1,161.5-17.3,167.4-63.2c0-0.1,0-0.2,0-0.5c1.3-3.5,2.9-6.9,3.4-10.7c4.6-35.8-34.5-71.6-93-90.9c34.1-35.7,56.9-79.2,63.6-127c32.1,43.8,64.7,72.2,81.9,68.6C905.2,759.5,919.6,665.4,882.6,575.2z"/></g>
</svg>